<?xml version="1.0" encoding="utf-8"?>
<!-- Generator: Adobe Illustrator 21.1.0, SVG Export Plug-In . SVG Version: 6.00 Build 0)  -->
<svg version="1.1" id="レイヤー_1" xmlns="http://www.w3.org/2000/svg" xmlns:xlink="http://www.w3.org/1999/xlink" x="0px"
	 y="0px" viewBox="0 0 1024 768" style="enable-background:new 0 0 1024 768;" xml:space="preserve">
<style type="text/css">
	.st0{enable-background:new    ;}
	.st1{clip-path:url(#SVGID_2_);enable-background:new    ;}
	.st2{fill:#878787;}
	.st3{fill:#838383;}
	.st4{fill:#7E7E7E;}
	.st5{clip-path:url(#SVGID_4_);enable-background:new    ;}
	.st6{clip-path:url(#SVGID_6_);enable-background:new    ;}
	.st7{fill:#9C0977;}
	.st8{fill:#A10A7B;}
	.st9{fill:#A60A7F;}
	.st10{fill:#970973;}
	.st11{fill:#B2B2B2;}
	.st12{clip-path:url(#SVGID_8_);enable-background:new    ;}
	.st13{fill:#6A6A6A;}
	.st14{fill:#6E6E6E;}
	.st15{fill:#727272;}
	.st16{fill:#767676;}
	.st17{fill:#7A7A7A;}
	.st18{fill:#DC0DA8;}
	.st19{fill:#92096F;}
	.st20{fill:#8D086C;}
	.st21{fill:#880868;}
	.st22{fill:#830864;}
	.st23{clip-path:url(#SVGID_10_);enable-background:new    ;}
	.st24{clip-path:url(#SVGID_12_);enable-background:new    ;}
	.st25{clip-path:url(#SVGID_14_);enable-background:new    ;}
	.st26{clip-path:url(#SVGID_16_);enable-background:new    ;}
</style>
<g>
	<g>
		<g class="st0">
			<g class="st0">
				<defs>
					<path id="SVGID_1_" class="st0" d="M314.9-93.6c38.7,8,74.4,20.8,106.5,38.2l911.7,496c-32-17.4-67.7-30.2-106.5-38.2
						C922.7,237.1,618.8,71.7,314.9-93.6z"/>
				</defs>
				<clipPath id="SVGID_2_">
					<use xlink:href="#SVGID_1_"  style="overflow:visible;"/>
				</clipPath>
				<g class="st1">
					<path class="st2" d="M1059.5,398.3l-911.7-496c57.3-8.1,112.9-6.8,165.2,3.7c7.9,1.6,15.6,3.4,23.2,5.3l911.7,496
						c-7.6-2-15.3-3.8-23.2-5.3C1172.4,391.5,1116.8,390.2,1059.5,398.3"/>
					<path class="st3" d="M1247.9,407.3l-911.7-496C362-82,386.3-73,408.9-61.9l911.7,496C1298,423,1273.7,414,1247.9,407.3"/>
					<path class="st4" d="M1320.7,434.1l-911.7-496c4.3,2.1,8.5,4.3,12.7,6.6l911.7,496C1329.2,438.4,1325,436.2,1320.7,434.1"/>
				</g>
			</g>
			<g class="st0">
				<defs>
					<path id="SVGID_3_" class="st0" d="M147.8-97.7c57.1-8,112.4-6.8,164.5,3.6c303.9,165.3,607.8,330.6,911.7,496
						c-52.1-10.4-107.5-11.6-164.5-3.6C786,249.5,421.3,51.1,147.8-97.7z"/>
				</defs>
				<clipPath id="SVGID_4_">
					<use xlink:href="#SVGID_3_"  style="overflow:visible;"/>
				</clipPath>
				<g class="st5">
					<path class="st2" d="M1059.5,398.3l-911.7-496c57.3-8.1,112.9-6.8,165.2,3.7c7.9,1.6,15.6,3.4,23.2,5.3l911.7,496
						c-7.6-2-15.3-3.8-23.2-5.3C1172.4,391.5,1116.8,390.2,1059.5,398.3"/>
				</g>
			</g>
			<g class="st0">
				<defs>
					<path id="SVGID_5_" class="st0" d="M784.4,1040.3l-911.7-496c32.6,17.7,69,30.7,108.6,38.7c52.3,10.5,107.9,11.8,165.2,3.7
						c57.3-8.1,112.9-24.9,165.3-50.2c50.6-24.4,96-55.4,135-92.4l911.7,496c-39,36.9-84.5,68-135,92.4
						c-52.4,25.2-108,42.1-165.3,50.2c-57.3,8.1-112.9,6.8-165.2-3.7C853.4,1071,817,1058.1,784.4,1040.3z"/>
				</defs>
				<clipPath id="SVGID_6_">
					<use xlink:href="#SVGID_5_"  style="overflow:visible;"/>
				</clipPath>
				<g class="st6">
					<path class="st7" d="M784.4,1040.3l-911.7-496c4.2,2.3,8.4,4.5,12.7,6.6l911.7,496C792.8,1044.8,788.6,1042.6,784.4,1040.3"/>
					<path class="st8" d="M797.1,1046.9l-911.7-496C-92,562-67.8,571-42,577.7l911.7,496C844,1066.9,819.7,1058,797.1,1046.9"/>
					<path class="st9" d="M869.8,1073.6L-42,577.7c7.6,2,15.4,3.8,23.2,5.3c52.3,10.5,107.9,11.8,165.2,3.7
						c55.8-7.8,109.9-24,161.1-48.1l911.7,496c-51.1,24.1-105.3,40.3-161.1,48.1c-57.3,8.1-112.9,6.8-165.2-3.7
						C885.1,1077.4,877.4,1075.6,869.8,1073.6"/>
					<path class="st8" d="M1219.3,1034.5l-911.7-496c1.4-0.7,2.8-1.3,4.2-2c26.2-12.6,50.9-27,74.2-43.1l911.7,496
						c-23.2,16.1-48,30.5-74.2,43.1C1222.1,1033.2,1220.7,1033.9,1219.3,1034.5"/>
					<path class="st7" d="M1297.7,989.5L386,493.5c18.2-12.6,35.4-26.2,51.6-40.8l911.7,496C1333.1,963.3,1315.9,976.9,1297.7,989.5
						"/>
					<path class="st10" d="M1349.3,948.7l-911.7-496c3.1-2.8,6.2-5.6,9.2-8.5l911.7,496C1355.5,943,1352.5,945.9,1349.3,948.7"/>
				</g>
			</g>
			<g>
				<path class="st11" d="M1059.5,398.3c57.3-8.1,112.9-6.8,165.2,3.7c50.5,10.2,95.8,28.5,134.8,54.5c38.9,26,69.4,58.3,90.7,96
					c22,39,33.1,82.2,33,128.4c-0.1,46.2-11.4,92.5-33.5,137.8c-21.4,43.7-52.1,84.6-91.1,121.6c-39,36.9-84.5,68-135,92.4
					c-52.4,25.2-108,42.1-165.3,50.2c-57.3,8.1-112.9,6.8-165.2-3.7c-50.5-10.2-95.8-28.5-134.8-54.5c-38.9-26-69.4-58.3-90.7-96
					c-22-39.1-33.1-82.2-33-128.4c0.1-46.1,11.4-92.5,33.5-137.7c21.4-43.7,52.1-84.7,91.1-121.6c39-36.9,84.5-68,135-92.4
					C946.6,423.2,1002.2,406.3,1059.5,398.3z"/>
			</g>
			<g class="st0">
				<defs>
					<path id="SVGID_7_" class="st0" d="M-17.5-47.5c52.4-25.2,108-42.1,165.3-50.2l911.7,496c-57.3,8.1-112.9,24.9-165.3,50.2
						c0,0,0,0,0,0c-50.6,24.4-96,55.4-135,92.4l0,0c-39,36.9-69.6,77.8-91.1,121.6c0,0,0,0,0,0c-22.2,45.3-33.5,91.6-33.5,137.7l0,0
						c-0.1,46.2,11,89.3,33,128.4l0,0c13.4,23.7,30.4,45.3,50.8,64.5C414.5,827.7,110.6,662.3-193.3,497
						c-20.4-19.2-37.4-40.8-50.8-64.5c0,0,0,0,0,0c-22-39.1-33.1-82.2-33-128.4l0,0c0.1-46.1,11.4-92.5,33.5-137.7l0,0
						c21.4-43.7,52.1-84.7,91.1-121.6l0,0C-113.5,7.9-68.1-23.2-17.5-47.5L-17.5-47.5z"/>
				</defs>
				<clipPath id="SVGID_8_">
					<use xlink:href="#SVGID_7_"  style="overflow:visible;"/>
				</clipPath>
				<g class="st12">
					<path class="st13" d="M784.4,1040.3l-911.7-496c-9-4.9-17.7-10.2-26.1-15.8c-38.9-26-69.4-58.3-90.7-96
						c-22-39.1-33.1-82.2-33-128.4c0.1-34.8,6.5-69.8,19.2-104.3l911.7,496c-12.7,34.5-19.1,69.4-19.2,104.3
						c-0.1,46.2,11,89.3,33,128.4c21.3,37.7,51.8,70,90.7,96C766.7,1030.1,775.4,1035.4,784.4,1040.3"/>
					<path class="st14" d="M653.8,695.9l-911.7-496c4.1-11.2,8.9-22.4,14.3-33.5c2.1-4.3,4.3-8.6,6.6-12.9l911.7,496
						c-2.3,4.3-4.5,8.5-6.6,12.9C662.7,673.5,657.9,684.6,653.8,695.9"/>
					<path class="st15" d="M674.7,649.5l-911.7-496c7.3-13.6,15.5-26.9,24.7-39.9l911.7,496C690.2,622.6,682,635.9,674.7,649.5"/>
					<path class="st16" d="M699.4,609.6l-911.7-496c9.1-13,19.2-25.7,30.1-38.1l911.7,496C718.5,583.9,708.5,596.6,699.4,609.6"/>
					<path class="st17" d="M729.4,571.5l-911.7-496c9.3-10.5,19.2-20.8,29.7-30.7c3-2.9,6.1-5.7,9.2-8.5l911.7,496
						c-3.1,2.8-6.2,5.6-9.2,8.5C748.6,550.8,738.7,561,729.4,571.5"/>
					<path class="st4" d="M768.3,532.3l-911.7-496c16.2-14.6,33.5-28.2,51.7-40.8l911.7,496C801.8,504.1,784.6,517.7,768.3,532.3"/>
					<path class="st3" d="M820,491.5L-91.7-4.5c23.2-16.1,48-30.5,74.2-43.1c1.4-0.7,2.8-1.3,4.2-2l911.7,496
						c-1.4,0.7-2.8,1.3-4.2,2C868,461,843.3,475.4,820,491.5"/>
					<path class="st2" d="M898.4,446.4l-911.7-496C37.8-73.7,92-89.9,147.8-97.7l911.7,496C1003.7,406.1,949.6,422.3,898.4,446.4"/>
				</g>
			</g>
			<g>
				<path class="st18" d="M1059.5,397.1c-142.6,20-268.7,94.4-346.1,192.1l0.9,0.5c13.4-16.9,28.3-33.3,44.8-48.9
					c39-36.9,84.5-68,135-92.4c52.4-25.2,108-42.1,165.3-50.2c57.3-8,112.9-6.8,165.2,3.7c50.5,10.1,95.9,28.5,134.8,54.5
					c38.9,26,69.4,58.3,90.7,96c22,39,33.1,82.2,33,128.4c-0.1,46.2-11.4,92.5-33.5,137.8c-21.4,43.7-52.1,84.6-91.1,121.5
					c-39,36.9-84.5,68-135,92.4c-52.4,25.2-108,42.1-165.3,50.2c-57.3,8.1-112.9,6.8-165.2-3.7c-8.8-1.8-17.3-3.9-25.8-6.1
					c-2-0.5-4-1.1-6-1.6c-8.2-2.3-16.3-4.8-24.2-7.6c-1.2-0.4-2.3-0.9-3.4-1.3c-7.1-2.6-14.1-5.4-21-8.4c-1.6-0.7-3.2-1.4-4.8-2.1
					c-7.5-3.4-14.8-7-21.9-10.8c-0.5-0.3-1-0.5-1.6-0.8l-25.6-13.9c76.8,50.8,182.5,74,299.4,57.5c235-33,425.7-213.6,426.1-403.2
					C1484.7,491,1294.5,364,1059.5,397.1z"/>
			</g>
			<g class="st0">
				<path class="st10" d="M1358.6,940.2l-911.7-496c10.5-10,20.5-20.2,29.8-30.7l911.7,496C1379,919.9,1369.1,930.2,1358.6,940.2"/>
				<path class="st19" d="M1388.3,909.4l-911.7-496c10.9-12.3,20.9-25,30.1-38.1l911.7,496C1409.2,884.4,1399.2,897.1,1388.3,909.4"
					/>
				<path class="st20" d="M1418.4,871.3l-911.7-496c9.1-13,17.3-26.3,24.7-39.9l911.7,496C1435.7,845,1427.5,858.4,1418.4,871.3"/>
				<path class="st21" d="M1443,831.4l-911.7-496c2.3-4.2,4.5-8.5,6.6-12.8c5.4-11.1,10.2-22.3,14.3-33.5l911.7,496
					c-4.1,11.2-8.9,22.4-14.3,33.5C1447.5,822.9,1445.3,827.2,1443,831.4"/>
				<path class="st22" d="M1464,785.1l-911.7-496c12.7-34.5,19.1-69.4,19.2-104.3c0.1-46.1-11-89.3-33-128.4
					c-21.3-37.7-51.8-70.1-90.7-96c-8.4-5.6-17.1-10.9-26.1-15.8l911.7,496c9,4.9,17.7,10.1,26.1,15.8c38.9,26,69.4,58.3,90.7,96
					c22,39,33.1,82.2,33,128.4C1483.1,715.7,1476.7,750.6,1464,785.1"/>
			</g>
			<g class="st0">
				<defs>
					<path id="SVGID_9_" class="st0" d="M314.9-93.6c328.5,120.1,517.9,496,911.7,496c-0.6-0.1-1.3-0.3-1.9-0.4
						c-0.2,0-0.4-0.1-0.7-0.1C920.1,236.5,616.2,71.2,312.3-94.1c0.2,0,0.4,0.1,0.7,0.1C313.6-93.9,314.3-93.7,314.9-93.6z"/>
				</defs>
				<clipPath id="SVGID_10_">
					<use xlink:href="#SVGID_9_"  style="overflow:visible;"/>
				</clipPath>
				<g class="st23">
					<path class="st2" d="M1059.5,398.3l-911.7-496c57.3-8.1,112.9-6.8,165.2,3.7c7.9,1.6,15.6,3.4,23.2,5.3l911.7,496
						c-7.6-2-15.3-3.8-23.2-5.3C1172.4,391.5,1116.8,390.2,1059.5,398.3"/>
				</g>
			</g>
			<g class="st0">
				<defs>
					<path id="SVGID_11_" class="st0" d="M422.5-56.3l911.7,496c-74-40.3-169.9-57.4-274.7-42.6l-911.7-496
						C252.5-113.6,348.4-96.6,422.5-56.3z"/>
				</defs>
				<clipPath id="SVGID_12_">
					<use xlink:href="#SVGID_11_"  style="overflow:visible;"/>
				</clipPath>
				<g class="st24">
					<path class="st9" d="M1059.5,397.1l-911.7-496c67.5-9.5,131.4-5.8,188,8.9l911.7,496C1190.9,391.3,1127,387.6,1059.5,397.1"/>
					<path class="st8" d="M1247.6,405.9L335.8-90c26.1,6.8,50.8,15.8,73.5,27l911.7,496C1298.3,421.7,1273.7,412.7,1247.6,405.9"/>
					<path class="st7" d="M1321.1,432.9l-911.7-496c4.4,2.2,8.8,4.4,13.1,6.8l911.7,496C1329.9,437.4,1325.5,435.1,1321.1,432.9"/>
				</g>
			</g>
			<g class="st0">
				<defs>
					<path id="SVGID_13_" class="st0" d="M-153.5,528.6c-14.5-9.7-27.8-20.2-39.9-31.5c303.9,165.3,607.8,330.6,911.7,496
						c12.1,11.4,25.4,21.9,39.9,31.5l0,0c8.5,5.7,17.3,11,26.3,15.9l-911.7-496C-136.2,539.5-145,534.2-153.5,528.6L-153.5,528.6z"
						/>
				</defs>
				<clipPath id="SVGID_14_">
					<use xlink:href="#SVGID_13_"  style="overflow:visible;"/>
				</clipPath>
				<g class="st25">
					<path class="st13" d="M784.4,1040.3l-911.7-496c-9-4.9-17.7-10.2-26.1-15.8c-38.9-26-69.4-58.3-90.7-96
						c-22-39.1-33.1-82.2-33-128.4c0.1-34.8,6.5-69.8,19.2-104.3l911.7,496c-12.7,34.5-19.1,69.4-19.2,104.3
						c-0.1,46.2,11,89.3,33,128.4c21.3,37.7,51.8,70,90.7,96C766.7,1030.1,775.4,1035.4,784.4,1040.3"/>
				</g>
			</g>
			<g class="st0">
				<defs>
					<path id="SVGID_15_" class="st0" d="M783.5,1041.3l-911.7-496c-92-50.1-150.3-135.9-150.1-241C-278,114.6-87.2-65.9,147.8-98.9
						l911.7,496c-235,33-425.7,213.6-426.1,403.2C633.2,905.4,691.5,991.2,783.5,1041.3z"/>
				</defs>
				<clipPath id="SVGID_16_">
					<use xlink:href="#SVGID_15_"  style="overflow:visible;"/>
				</clipPath>
				<g class="st26">
					<path class="st22" d="M783.5,1041.3l-911.7-496c-92-50.1-150.3-135.9-150.1-241c0.1-35.4,6.8-70.6,19.2-104.4l911.7,496
						c-12.4,33.9-19.1,69-19.2,104.4C633.2,905.4,691.5,991.2,783.5,1041.3"/>
					<path class="st21" d="M652.6,695.8l-911.7-496c5.8-15.8,12.8-31.3,20.9-46.5l911.7,496C665.4,664.5,658.4,680,652.6,695.8"/>
					<path class="st20" d="M673.5,649.4l-911.7-496c7.4-13.7,15.7-27.2,24.9-40.3l911.7,496C689.2,622.2,680.9,635.6,673.5,649.4"/>
					<path class="st19" d="M698.4,609.1l-911.7-496c9.3-13.3,19.5-26.2,30.5-38.7l911.7,496C717.9,582.9,707.7,595.8,698.4,609.1"/>
					<path class="st10" d="M729,570.4l-911.7-496c12-13.6,25-26.6,38.8-39.1l911.7,496C753.9,543.8,741,556.8,729,570.4"/>
					<path class="st7" d="M767.8,531.3l-911.7-496C-127.7,20.8-110.3,7-91.8-5.7l911.7,496C801.4,503,784,516.8,767.8,531.3"/>
					<path class="st8" d="M819.9,490.3L-91.8-5.7c24.4-16.9,50.7-32,78.4-45.1l911.7,496C870.6,458.2,844.3,473.4,819.9,490.3"/>
					<path class="st9" d="M898.3,445.2l-911.7-496C36.3-74.2,90.7-90.9,147.8-98.9l911.7,496C1002.5,405.1,948.1,421.8,898.3,445.2"
						/>
				</g>
			</g>
		</g>
	</g>
</g>
</svg>
