<svg id="レイヤー_2" data-name="レイヤー 2" xmlns="http://www.w3.org/2000/svg" viewBox="0 0 525.6 483.54"><defs><style>.cls-1,.cls-2{fill:#045689;}.cls-1{stroke:#16445b;stroke-width:5.59px;}.cls-1,.cls-2,.cls-3,.cls-4,.cls-5{stroke-miterlimit:10;}.cls-2,.cls-5{stroke:#b3b6b7;stroke-width:8px;}.cls-3{fill:#b3b6b7;}.cls-3,.cls-4{stroke:#000;stroke-width:3px;}.cls-4{fill:#fff;}.cls-5{fill:#01334c;}</style></defs><title>handspiner2</title><path class="cls-1" d="M709.63,436.26c-24.19-13.33-87-11.47-107.23-27.11a46.7,46.7,0,0,1-8.35-8.26c-4-4.89-7.59-7.2-14-13.89-1.46-5.12-1.39-1-5-16-1.2-6.3-3-2-4-15-2-25.52,28-79.39,28-107a100,100,0,0,0-200,0c0,50,26.22,93.85,24.14,119.46C423,372,419,382,416.64,385.95c-5,6.68-4.64,10.05-11.67,14.56-20.91,14.94-72,14.95-114.91,40.62A100,100,0,1,0,392.74,612.75c23.7-14.18,53.73-69.35,77.45-79a47,47,0,0,1,10.3-2.9C493,529,488,530.95,495,529c10.67,1.81,9,0,24.16,3.22,23.7,9.73,49.56,54.76,94,79.22a100,100,0,0,0,96.52-175.17Z" transform="translate(-238.59 -146.2)"/><circle class="cls-2" cx="260.41" cy="102.8" r="71.5"/><circle class="cls-3" cx="260.41" cy="102.8" r="40"/><circle class="cls-4" cx="260.41" cy="102.8" r="28.5"/><circle class="cls-5" cx="260.91" cy="281.3" r="71.5"/><circle class="cls-2" cx="661.37" cy="523.85" r="71.5" transform="translate(-355.2 704.11) rotate(-61.15)"/><circle class="cls-3" cx="661.37" cy="523.85" r="40" transform="translate(-355.2 704.11) rotate(-61.15)"/><circle class="cls-4" cx="661.37" cy="523.85" r="28.5" transform="translate(-355.2 704.11) rotate(-61.15)"/><circle class="cls-2" cx="341.4" cy="526.93" r="71.5" transform="translate(-460.69 103.82) rotate(-30.89)"/><circle class="cls-3" cx="341.4" cy="526.93" r="40" transform="translate(-460.69 103.82) rotate(-30.89)"/><circle class="cls-4" cx="341.4" cy="526.93" r="28.5" transform="translate(-460.69 103.82) rotate(-30.89)"/></svg>