<?xml version="1.0" encoding="utf-8"?>
<!-- Generator: Adobe Illustrator 21.1.0, SVG Export Plug-In . SVG Version: 6.00 Build 0)  -->
<svg version="1.1" id="レイヤー_2" xmlns="http://www.w3.org/2000/svg" xmlns:xlink="http://www.w3.org/1999/xlink" x="0px"
	 y="0px" viewBox="0 0 3762.4 3461.3" style="enable-background:new 0 0 3762.4 3461.3;" xml:space="preserve">
<style type="text/css">
	.st0{fill:#045689;stroke:#16445B;stroke-width:39.4356;stroke-miterlimit:10;}
	.st1{fill:#045689;stroke:#B3B6B7;stroke-width:56.4374;stroke-miterlimit:10;}
	.st2{fill:#B3B6B7;stroke:#000000;stroke-width:21.164;stroke-miterlimit:10;}
	.st3{fill:#FFFFFF;stroke:#000000;stroke-width:21.164;stroke-miterlimit:10;}
	.st4{fill:#01334C;stroke:#B3B6B7;stroke-width:56.4374;stroke-miterlimit:10;}
</style>
<title>handspiner2</title>
<path class="st0" d="M3352.5,2069.8c-170.7-94-613.8-80.9-756.5-191.3c-22-16.9-41.8-36.4-58.9-58.3c-28.2-34.5-53.5-50.8-98.8-98
	c-10.3-36.1-9.8-7.1-35.3-112.9c-8.5-44.4-21.2-14.1-28.2-105.8c-14.1-180,197.5-560.1,197.5-754.9c0-389.6-315.8-705.5-705.5-705.5
	s-705.5,315.8-705.5,705.5l0,0c0,352.7,185,662.1,170.3,842.8c-1.3,25-29.6,95.5-46.2,123.4c-35.3,47.1-32.7,70.9-82.3,102.7
	c-147.5,105.4-507.9,105.5-810.7,286.6c-336.2,196.9-449,629.1-252.1,965.3s629.1,449,965.3,252.1c3.7-2.2,7.5-4.4,11.2-6.7
	c167.2-100,379-489.2,546.4-557.3c23.4-9.6,47.7-16.4,72.7-20.5c88.3-13.1,53,0.7,102.4-13.1c75.3,12.8,63.5,0,170.4,22.7
	c167.2,68.6,349.6,386.3,663.1,558.9c341.2,188,770.3,63.8,958.3-277.4c188-341.2,63.8-770.3-277.4-958.3l0,0L3352.5,2069.8z"/>
<circle class="st1" cx="1866.6" cy="748.8" r="504.4"/>
<circle class="st2" cx="1866.6" cy="748.8" r="282.2"/>
<circle class="st3" cx="1866.6" cy="748.8" r="201.1"/>
<circle class="st4" cx="1870.1" cy="2008" r="504.4"/>
<ellipse transform="matrix(0.4825 -0.8759 0.8759 0.4825 -795.2162 4028.7231)" class="st1" cx="3011.9" cy="2687.4" rx="504.4" ry="504.4"/>
<ellipse transform="matrix(0.4825 -0.8759 0.8759 0.4825 -795.2162 4028.7231)" class="st2" cx="3011.9" cy="2687.4" rx="282.2" ry="282.2"/>
<ellipse transform="matrix(0.4825 -0.8759 0.8759 0.4825 -795.2162 4028.7231)" class="st3" cx="3011.9" cy="2687.4" rx="201.1" ry="201.1"/>
<ellipse transform="matrix(0.8582 -0.5134 0.5134 0.8582 -1283.9901 771.8098)" class="st1" cx="754.7" cy="2709.5" rx="504.4" ry="504.4"/>
<ellipse transform="matrix(0.8582 -0.5134 0.5134 0.8582 -1283.9901 771.8098)" class="st2" cx="754.7" cy="2709.5" rx="282.2" ry="282.2"/>
<ellipse transform="matrix(0.8582 -0.5134 0.5134 0.8582 -1283.9901 771.8098)" class="st3" cx="754.7" cy="2709.5" rx="201.1" ry="201.1"/>
</svg>
